<svg width="19" height="16" viewBox="0 0 19 16" fill="none" xmlns="http://www.w3.org/2000/svg">
<path d="M17.4999 6.49977H6.12091L9.5604 3.06027C9.69967 2.92101 9.81015 2.75567 9.88552 2.57371C9.96089 2.39175 9.99968 2.19673 9.99968 1.99977C9.99968 1.80282 9.96089 1.6078 9.88552 1.42583C9.81015 1.24387 9.69967 1.07854 9.5604 0.939273C9.42114 0.800006 9.25581 0.689534 9.07384 0.614163C8.89188 0.538793 8.69686 0.5 8.49991 0.5C8.30295 0.5 8.10793 0.538793 7.92597 0.614163C7.74401 0.689534 7.57867 0.800007 7.43941 0.939274L0.378906 7.99977L7.43941 15.0603C7.57839 15.2001 7.74363 15.311 7.92563 15.3867C8.10763 15.4624 8.30279 15.5013 8.49991 15.5013C8.69702 15.5013 8.89219 15.4624 9.07418 15.3867C9.25618 15.311 9.42143 15.2001 9.5604 15.0603C9.69982 14.9211 9.81043 14.7558 9.8859 14.5738C9.96136 14.3918 10.0002 14.1968 10.0002 13.9998C10.0002 13.8028 9.96136 13.6077 9.8859 13.4257C9.81043 13.2438 9.69982 13.0785 9.5604 12.9393L6.12091 9.49977H17.4999C17.8977 9.49977 18.2793 9.34174 18.5606 9.06043C18.8419 8.77913 18.9999 8.3976 18.9999 7.99977C18.9999 7.60195 18.8419 7.22042 18.5606 6.93911C18.2793 6.65781 17.8977 6.49977 17.4999 6.49977Z" fill="black"/>
</svg>
