<svg width="20" height="16" viewBox="0 0 20 16" fill="none" xmlns="http://www.w3.org/2000/svg">
<path d="M9.9395 0.939802C9.80008 1.07898 9.68947 1.24429 9.61401 1.42626C9.53854 1.60823 9.4997 1.8033 9.4997 2.0003C9.4997 2.1973 9.53854 2.39237 9.61401 2.57434C9.68947 2.75631 9.80008 2.92162 9.9395 3.0608L13.379 6.5003H2C1.60218 6.5003 1.22064 6.65834 0.93934 6.93964C0.658036 7.22095 0.5 7.60248 0.5 8.0003C0.5 8.39813 0.658036 8.77966 0.93934 9.06096C1.22064 9.34227 1.60218 9.5003 2 9.5003H13.379L9.9395 12.9398C9.65824 13.2211 9.50023 13.6025 9.50023 14.0003C9.50023 14.3981 9.65824 14.7795 9.9395 15.0608C10.2208 15.3421 10.6022 15.5001 11 15.5001C11.3978 15.5001 11.7792 15.3421 12.0605 15.0608L19.121 8.0003L12.0605 0.939802C11.9213 0.800384 11.756 0.689777 11.574 0.614311C11.3921 0.538845 11.197 0.5 11 0.5C10.803 0.5 10.6079 0.538845 10.426 0.614311C10.244 0.689777 10.0787 0.800384 9.9395 0.939802Z" fill="black"/>
</svg>
