<svg width="23" height="18" viewBox="0 0 23 18" fill="none" xmlns="http://www.w3.org/2000/svg">
<path d="M21.5217 0.556369C21.3403 0.373663 21.1225 0.23128 20.8823 0.138525C20.6422 0.0457705 20.3852 0.00473151 20.1281 0.0180905C19.871 0.0314495 19.6197 0.0989056 19.3905 0.216051C19.1612 0.333196 18.9593 0.497393 18.7979 0.697911L14.3479 6.08341C13.4883 5.89699 12.7288 6.28019 12.1972 7.19503C12.0038 7.52645 11.8727 7.9131 11.8071 8.34463C11.7001 9.03163 11.486 9.62541 11.1477 10.1571C11.0925 10.2468 11.0856 10.3573 11.1339 10.4505C11.1822 10.5437 11.2789 10.6024 11.3824 10.6059C11.5309 10.6128 11.6793 10.6128 11.8209 10.6128C13.5401 10.6128 14.7415 10.2054 15.3905 9.40447C15.8945 8.77961 15.9221 8.09262 15.8876 7.71977L21.3491 3.28019C21.5506 3.12045 21.7165 2.92027 21.836 2.69255C21.9555 2.46482 22.026 2.2146 22.043 1.95798C22.0809 1.43669 21.8876 0.925759 21.5217 0.556369ZM15.6701 5.40677L16.6299 6.3665L15.6425 7.16742L14.8623 6.38376L15.6701 5.40677ZM14.9314 9.04198C14.4135 9.6772 13.3675 10.0155 11.8934 10.0259C12.135 9.54256 12.2973 9.01782 12.387 8.43094C12.4423 8.0719 12.5493 7.7543 12.7047 7.48847C13.043 6.9085 13.4572 6.61851 13.9406 6.61851C14.0579 6.61851 14.1822 6.63577 14.3099 6.67029L15.2973 7.66454C15.3318 7.87513 15.3801 8.49653 14.9314 9.04198ZM20.99 2.82104L20.9866 2.82449L17.0856 5.99711L16.043 4.95453L19.2536 1.07075C19.4745 0.794574 19.8025 0.625414 20.158 0.604701C20.5136 0.583987 20.8554 0.718625 21.104 0.970639C21.3525 1.22265 21.4837 1.56788 21.463 1.92001C21.4423 2.27213 21.2697 2.6001 20.99 2.82104Z" fill="white"/>
<path d="M9.49893 13.8397C9.68387 13.8397 9.8338 13.6897 9.8338 13.5048C9.8338 13.3198 9.68387 13.1699 9.49893 13.1699C9.31399 13.1699 9.16406 13.3198 9.16406 13.5048C9.16406 13.6897 9.31399 13.8397 9.49893 13.8397Z" fill="white"/>
<path d="M6.03642 2.08641C6.03642 2.00858 6.0055 1.93395 5.95047 1.87892C5.89544 1.82388 5.8208 1.79297 5.74298 1.79297H1.97313C1.8953 1.79297 1.82067 1.82388 1.76563 1.87892C1.7106 1.93395 1.67969 2.00858 1.67969 2.08641V5.04498C1.67969 5.20724 1.81087 5.33842 1.97313 5.33842H5.74298C5.90523 5.33842 6.03642 5.20724 6.03642 5.04498V2.08641ZM5.44954 4.74809H2.26657V2.3764H5.44954V4.74809ZM6.03642 6.49492C6.03642 6.4171 6.0055 6.34246 5.95047 6.28743C5.89544 6.2324 5.8208 6.20148 5.74298 6.20148H1.97313C1.8953 6.20148 1.82067 6.2324 1.76563 6.28743C1.7106 6.34246 1.67969 6.4171 1.67969 6.49492C1.67969 6.57275 1.7106 6.64739 1.76563 6.70242C1.82067 6.75745 1.8953 6.78836 1.97313 6.78836H5.74298C5.90523 6.78836 6.03642 6.65718 6.03642 6.49492ZM1.97313 7.52024C1.8953 7.52024 1.82067 7.55115 1.76563 7.60619C1.7106 7.66122 1.67969 7.73585 1.67969 7.81368C1.67969 7.8915 1.7106 7.96614 1.76563 8.02117C1.82067 8.0762 1.8953 8.10712 1.97313 8.10712H4.621C4.69882 8.10712 4.77346 8.0762 4.82849 8.02117C4.88352 7.96614 4.91444 7.8915 4.91444 7.81368C4.91444 7.73585 4.88352 7.66122 4.82849 7.60619C4.77346 7.55115 4.69882 7.52024 4.621 7.52024H1.97313ZM11.1319 6.49492C11.1319 6.4171 11.101 6.34246 11.046 6.28743C10.991 6.2324 10.9163 6.20148 10.8385 6.20148H7.06864C6.99081 6.20148 6.91617 6.2324 6.86114 6.28743C6.80611 6.34246 6.7752 6.4171 6.7752 6.49492C6.7752 6.57275 6.80611 6.64739 6.86114 6.70242C6.91617 6.75745 6.99081 6.78836 7.06864 6.78836H10.8385C11.0007 6.78836 11.1319 6.65718 11.1319 6.49492ZM7.06864 7.52024C6.99081 7.52024 6.91617 7.55115 6.86114 7.60619C6.80611 7.66122 6.7752 7.73585 6.7752 7.81368C6.7752 7.8915 6.80611 7.96614 6.86114 8.02117C6.91617 8.0762 6.99081 8.10712 7.06864 8.10712H9.71651C9.79433 8.10712 9.86897 8.0762 9.924 8.02117C9.97903 7.96614 10.0099 7.8915 10.0099 7.81368C10.0099 7.73585 9.97903 7.66122 9.924 7.60619C9.86897 7.55115 9.79433 7.52024 9.71651 7.52024H7.06864ZM11.1319 2.08641C11.1319 2.00858 11.101 1.93395 11.046 1.87892C10.991 1.82388 10.9163 1.79297 10.8385 1.79297H7.06864C6.99081 1.79297 6.91617 1.82388 6.86114 1.87892C6.80611 1.93395 6.7752 2.00858 6.7752 2.08641V5.04498C6.7752 5.20724 6.90638 5.33842 7.06864 5.33842H10.8385C11.0007 5.33842 11.1319 5.20724 11.1319 5.04498V2.08641ZM10.545 4.74809H7.36208V2.3764H10.545V4.74809Z" fill="white"/>
<path d="M18.9873 6.79747C18.9873 6.75893 18.9797 6.72078 18.965 6.68517C18.9503 6.64957 18.9286 6.61722 18.9014 6.58997C18.8741 6.56273 18.8418 6.54111 18.8062 6.52636C18.7706 6.51162 18.7324 6.50403 18.6939 6.50403C18.6554 6.50403 18.6172 6.51162 18.5816 6.52636C18.546 6.54111 18.5137 6.56273 18.4864 6.58997C18.4592 6.61722 18.4375 6.64957 18.4228 6.68517C18.408 6.72078 18.4005 6.75893 18.4005 6.79747V12H0.586881V1.74684C0.586881 1.10817 1.10472 0.586881 1.74338 0.586881H17.2405C17.3579 0.586881 17.4787 0.607595 17.6133 0.655926C17.7652 0.70771 17.9344 0.624856 17.9862 0.472957C18.038 0.321059 17.9551 0.151899 17.8032 0.100115C17.6064 0.0345224 17.4235 0 17.2405 0H1.74338C0.783659 0 0 0.783659 0 1.74684V13.2566C0 14.2198 0.783659 15.0035 1.74338 15.0035H7.16686L6.71807 16.0736H5.43038C5.17939 16.0804 4.94094 16.1848 4.7658 16.3647C4.59065 16.5446 4.49265 16.7857 4.49265 17.0368C4.49265 17.2879 4.59065 17.5291 4.7658 17.709C4.94094 17.8889 5.17939 17.9933 5.43038 18H13.5604C13.8114 17.9933 14.0498 17.8889 14.225 17.709C14.4001 17.5291 14.4981 17.2879 14.4981 17.0368C14.4981 16.7857 14.4001 16.5446 14.225 16.3647C14.0498 16.1848 13.8114 16.0804 13.5604 16.0736H12.2727L11.8239 15.0035H17.244C18.2037 15.0035 18.9873 14.2232 18.9873 13.2635V12.2934V6.79747ZM13.9367 17.0403C13.9367 17.2474 13.7675 17.4166 13.5604 17.4166H5.43038C5.22324 17.4166 5.05408 17.2474 5.05408 17.0403C5.05408 16.8331 5.22324 16.664 5.43038 16.664H13.5604C13.7675 16.664 13.9367 16.8331 13.9367 17.0403ZM11.6341 16.0771H7.35328L7.80207 15.0069H11.1853L11.6341 16.0771ZM18.4005 13.267C18.4005 13.9022 17.8826 14.42 17.244 14.42H1.74338C1.10472 14.42 0.586881 13.8987 0.586881 13.2601V12.5903H18.4005V13.267Z" fill="white"/>
</svg>
