<svg width="24" height="18" viewBox="0 0 24 18" fill="none" xmlns="http://www.w3.org/2000/svg">
<path d="M22.9736 1.83231L18.3204 0.0322955C18.2093 -0.0107652 18.0853 -0.0107652 17.9742 0.0322955L13.3211 1.83231C13.2348 1.86574 13.1609 1.92338 13.1088 1.99781C13.0567 2.07224 13.0289 2.16004 13.0288 2.24991V6.90114C13.0312 7.75577 13.2612 8.5954 13.6966 9.33912C14.132 10.0828 14.7581 10.7056 15.5146 11.1474L17.9081 12.5361C17.9804 12.5779 18.0631 12.6001 18.1473 12.6001C18.2316 12.6001 18.3142 12.5779 18.3865 12.5361L20.4739 11.3247V16.3647C20.4736 16.5603 20.3932 16.7479 20.2501 16.8863C20.107 17.0246 19.9131 17.1025 19.7108 17.1027H1.69375C1.49143 17.1025 1.29747 17.0246 1.15442 16.8863C1.01136 16.7479 0.930878 16.5603 0.930631 16.3647V6.29993H11.6329C11.7563 6.29993 11.8747 6.25252 11.9619 6.16813C12.0492 6.08374 12.0982 5.96928 12.0982 5.84993C12.0982 5.73058 12.0492 5.61612 11.9619 5.53173C11.8747 5.44734 11.7563 5.39993 11.6329 5.39993H0.930631V4.33792C0.930878 4.14226 1.01136 3.95469 1.15442 3.81634C1.29747 3.67798 1.49143 3.60015 1.69375 3.59992H11.6329C11.7563 3.59992 11.8747 3.55251 11.9619 3.46811C12.0492 3.38372 12.0982 3.26926 12.0982 3.14991C12.0982 3.03057 12.0492 2.91611 11.9619 2.83171C11.8747 2.74732 11.7563 2.69991 11.6329 2.69991H1.69375C1.24461 2.70015 0.813946 2.8728 0.49636 3.17994C0.178774 3.48707 0.000246574 3.90357 0 4.33792V16.362C0.000246574 16.7963 0.178774 17.2128 0.49636 17.52C0.813946 17.8271 1.24461 17.9998 1.69375 18H19.7108C20.1599 17.9998 20.5906 17.8271 20.9082 17.52C21.2257 17.2128 21.4043 16.7963 21.4045 16.362V10.71C21.9842 10.2452 22.4513 9.66304 22.7729 9.00461C23.0945 8.34618 23.2627 7.62752 23.2658 6.89934V2.24991C23.2658 2.16004 23.2379 2.07224 23.1858 1.99781C23.1338 1.92338 23.0598 1.86574 22.9736 1.83231ZM22.3352 6.90114C22.3333 7.60044 22.1451 8.28747 21.7887 8.89597C21.4324 9.50447 20.9199 10.0139 20.3008 10.3752L18.1473 11.6253L15.9938 10.3752C15.3747 10.0139 14.8622 9.50447 14.5059 8.89597C14.1496 8.28747 13.9614 7.60044 13.9595 6.90114V2.55411L18.1473 0.934101L22.3352 2.55411V6.90114Z" fill="#63636A"/>
</svg>
