<svg width="20" height="20" viewBox="0 0 20 20" fill="none" xmlns="http://www.w3.org/2000/svg">
<path d="M5.48786 11.0446L14.8152 1.71724M12.0208 1.08023L4.82396 8.27712M8.96154 14.4337L18.2255 5.16978M10.9672 8.99663L16.8874 3.07644M6.86114 13.1027L8.63826 11.3256M11.6867 15.1399L18.8836 7.94301M18.964 8.08972C18.964 12.0053 15.7898 15.1794 11.8743 15.1794C7.95873 15.1794 4.78456 12.0053 4.78456 8.08972C4.78456 4.17418 7.95873 1 11.8743 1C15.7898 1 18.964 4.17418 18.964 8.08972ZM15.1794 11.9103C15.1794 15.8258 12.0053 19 8.08972 19C4.17418 19 1 15.8258 1 11.9103C1 7.99474 4.17418 4.82056 8.08972 4.82056C12.0053 4.82056 15.1794 7.99474 15.1794 11.9103Z" stroke="#63636A" stroke-width="0.75" stroke-miterlimit="10" stroke-linecap="round" stroke-linejoin="round"/>
</svg>
